<svg width="67" height="62" viewBox="0 0 67 62" fill="none" xmlns="http://www.w3.org/2000/svg">
<path fill-rule="evenodd" clip-rule="evenodd" d="M63.3191 31.443C63.3191 28.6302 61.0389 26.3501 58.2262 26.3501H34.4596C31.6469 26.3501 29.3667 28.6302 29.3667 31.443V48.4191C29.3667 51.2319 31.6469 53.512 34.4596 53.512H52.5188C52.9159 53.512 53.3005 53.6512 53.6055 53.9055L57.7503 57.3594C59.9617 59.2023 63.3191 57.6297 63.3191 54.7511V31.443ZM54.831 36.5358C54.831 35.5982 54.0709 34.8382 53.1334 34.8382H39.5524C38.6149 34.8382 37.8548 35.5982 37.8548 36.5358C37.8548 37.4734 38.6149 38.2334 39.5524 38.2334H53.1334C54.0709 38.2334 54.831 37.4734 54.831 36.5358ZM53.1334 41.6287C54.0709 41.6287 54.831 42.3887 54.831 43.3263C54.831 44.2639 54.0709 45.0239 53.1334 45.0239H46.3429C45.4053 45.0239 44.6453 44.2639 44.6453 43.3263C44.6453 42.3887 45.4053 41.6287 46.3429 41.6287H53.1334Z" fill="#444C54"/>
<path fill-rule="evenodd" clip-rule="evenodd" d="M4.93555 13.9501C4.93555 10.0979 8.05836 6.9751 11.9105 6.9751H44.4606C48.3127 6.9751 51.4356 10.0979 51.4356 13.9501V37.2001C51.4356 41.0523 48.3127 44.1751 44.4606 44.1751H19.7273C19.1834 44.1751 18.6567 44.3658 18.2389 44.714L12.5624 49.4444C9.53373 51.9683 4.93555 49.8146 4.93555 45.8722V13.9501ZM16.5605 20.9251C16.5605 19.641 17.6015 18.6001 18.8855 18.6001H37.4856C38.7696 18.6001 39.8106 19.641 39.8106 20.9251C39.8106 22.2092 38.7696 23.2501 37.4856 23.2501H18.8855C17.6015 23.2501 16.5605 22.2092 16.5605 20.9251ZM18.8855 27.9001C17.6015 27.9001 16.5605 28.941 16.5605 30.2251C16.5605 31.5092 17.6015 32.5501 18.8855 32.5501H28.1855C29.4696 32.5501 30.5106 31.5092 30.5106 30.2251C30.5106 28.941 29.4696 27.9001 28.1855 27.9001H18.8855Z" fill="#EBFF00"/>
</svg>
