<svg width="303" height="362" viewBox="0 0 303 362" fill="none" xmlns="http://www.w3.org/2000/svg">
<rect x="0.5" y="0.5" width="302" height="361" rx="9.5" fill="#1A1D1F"/>
<path d="M40.6197 31.8C44.5557 31.8 46.5237 33.876 46.5237 38.028V41.304C46.5237 45.456 44.5557 47.532 40.6197 47.532H38.7477V57H34.7877V31.8H40.6197ZM40.6197 35.4H38.7477V43.932H40.6197C41.2677 43.932 41.7477 43.752 42.0597 43.392C42.3957 43.032 42.5637 42.42 42.5637 41.556V37.776C42.5637 36.912 42.3957 36.3 42.0597 35.94C41.7477 35.58 41.2677 35.4 40.6197 35.4ZM57.142 31.8L61.174 57H57.178L56.494 52.428H51.634L50.95 57H47.314L51.346 31.8H57.142ZM54.046 36.264L52.138 49.008H55.954L54.046 36.264ZM70.7581 47.604H74.5021V50.952C74.5021 52.992 73.9981 54.564 72.9901 55.668C71.9821 56.748 70.5181 57.288 68.5981 57.288C66.6781 57.288 65.2141 56.748 64.2061 55.668C63.1981 54.564 62.6941 52.992 62.6941 50.952V37.848C62.6941 35.808 63.1981 34.248 64.2061 33.168C65.2141 32.064 66.6781 31.512 68.5981 31.512C70.5181 31.512 71.9821 32.064 72.9901 33.168C73.9981 34.248 74.5021 35.808 74.5021 37.848V40.296H70.7581V37.596C70.7581 35.94 70.0741 35.112 68.7061 35.112C67.3381 35.112 66.6541 35.94 66.6541 37.596V51.204C66.6541 52.836 67.3381 53.652 68.7061 53.652C70.0741 53.652 70.7581 52.836 70.7581 51.204V47.604ZM80.8648 35.4V57H76.9048V31.8H89.3968V57H85.3648V35.4H80.8648ZM99.6481 45.444L96.3361 57H92.2681V31.8H95.7961V47.748L97.2361 42.204L100.476 31.8H104.832V57H101.268V39.252L99.6481 45.444ZM115.371 47.604H119.115V50.952C119.115 52.992 118.611 54.564 117.603 55.668C116.595 56.748 115.131 57.288 113.211 57.288C111.291 57.288 109.827 56.748 108.819 55.668C107.811 54.564 107.307 52.992 107.307 50.952V37.848C107.307 35.808 107.811 34.248 108.819 33.168C109.827 32.064 111.291 31.512 113.211 31.512C115.131 31.512 116.595 32.064 117.603 33.168C118.611 34.248 119.115 35.808 119.115 37.848V40.296H115.371V37.596C115.371 35.94 114.687 35.112 113.319 35.112C111.951 35.112 111.267 35.94 111.267 37.596V51.204C111.267 52.836 111.951 53.652 113.319 53.652C114.687 53.652 115.371 52.836 115.371 51.204V47.604ZM130.302 31.8L134.334 57H130.338L129.654 52.428H124.794L124.11 57H120.474L124.506 31.8H130.302ZM127.206 36.264L125.298 49.008H129.114L127.206 36.264ZM140.138 46.2V57H136.178V31.8H140.138V42.6H144.638V31.8H148.67V57H144.638V46.2H140.138ZM158.922 45.444L155.61 57H151.542V31.8H155.07V47.748L156.51 42.204L159.75 31.8H164.106V57H160.542V39.252L158.922 45.444ZM170.865 35.4V42.42H176.301V46.02H170.865V53.4H177.705V57H166.905V31.8H177.705V35.4H170.865ZM198.781 31.8L194.533 50.592C194.029 53.04 193.225 54.768 192.121 55.776C191.017 56.784 189.157 57.204 186.541 57.036V53.508C187.621 53.58 188.437 53.472 188.989 53.184C189.541 52.896 189.889 52.32 190.033 51.456L190.069 51.24L184.597 31.8H188.521L190.681 40.404L191.905 46.308L192.841 40.44L194.641 31.8H198.781ZM206.276 31.8C210.212 31.8 212.18 33.876 212.18 38.028V41.304C212.18 45.456 210.212 47.532 206.276 47.532H204.404V57H200.444V31.8H206.276ZM206.276 35.4H204.404V43.932H206.276C206.924 43.932 207.404 43.752 207.716 43.392C208.052 43.032 208.22 42.42 208.22 41.556V37.776C208.22 36.912 208.052 36.3 207.716 35.94C207.404 35.58 206.924 35.4 206.276 35.4ZM217.65 37.596V51.204C217.65 52.86 218.334 53.688 219.702 53.688C221.07 53.688 221.754 52.86 221.754 51.204V37.596C221.754 35.94 221.07 35.112 219.702 35.112C218.334 35.112 217.65 35.94 217.65 37.596ZM213.69 50.952V37.848C213.69 35.832 214.206 34.272 215.238 33.168C216.27 32.064 217.758 31.512 219.702 31.512C221.646 31.512 223.134 32.064 224.166 33.168C225.198 34.272 225.714 35.832 225.714 37.848V50.952C225.714 52.968 225.198 54.528 224.166 55.632C223.134 56.736 221.646 57.288 219.702 57.288C217.758 57.288 216.27 56.736 215.238 55.632C214.206 54.528 213.69 52.968 213.69 50.952ZM237.324 57L233.472 46.956L232.248 49.26V57H228.288V31.8H232.248V42.78L237.432 31.8H241.392L235.884 43.032L241.392 57H237.324ZM246.83 37.596V51.204C246.83 52.86 247.514 53.688 248.882 53.688C250.25 53.688 250.934 52.86 250.934 51.204V37.596C250.934 35.94 250.25 35.112 248.882 35.112C247.514 35.112 246.83 35.94 246.83 37.596ZM242.87 50.952V37.848C242.87 35.832 243.386 34.272 244.418 33.168C245.45 32.064 246.938 31.512 248.882 31.512C250.826 31.512 252.314 32.064 253.346 33.168C254.378 34.272 254.894 35.832 254.894 37.848V50.952C254.894 52.968 254.378 54.528 253.346 55.632C252.314 56.736 250.826 57.288 248.882 57.288C246.938 57.288 245.45 56.736 244.418 55.632C243.386 54.528 242.87 52.968 242.87 50.952ZM263.443 31.8C265.483 31.8 266.971 32.28 267.907 33.24C268.843 34.176 269.311 35.628 269.311 37.596V38.496C269.311 41.088 268.459 42.78 266.755 43.572C268.723 44.34 269.707 46.14 269.707 48.972V51.024C269.707 52.968 269.191 54.456 268.159 55.488C267.151 56.496 265.663 57 263.695 57H257.467V31.8H263.443ZM263.191 45.66H261.427V53.4H263.695C264.391 53.4 264.907 53.22 265.243 52.86C265.579 52.476 265.747 51.828 265.747 50.916V48.72C265.747 47.568 265.543 46.776 265.135 46.344C264.751 45.888 264.103 45.66 263.191 45.66ZM263.335 35.4H261.427V42.06H262.975C263.767 42.06 264.355 41.856 264.739 41.448C265.147 41.04 265.351 40.356 265.351 39.396V37.992C265.351 36.264 264.679 35.4 263.335 35.4Z" fill="white"/>
<path d="M35.4 84.4V94H33.64V82.8H39.192V94H37.4V84.4H35.4ZM42.2281 89.2V94H40.4681V82.8H42.2281V87.6H44.2281V82.8H46.0201V94H44.2281V89.2H42.2281Z" fill="#EBFF00"/>
<path opacity="0.33" d="M73.368 90.752L72.072 82.8H69.624V94H71.16V86.08L72.472 94H74.136L75.352 85.968V94H77.016V82.8H74.568L73.368 90.752ZM78.1523 85.488V91.312C78.1523 93.104 79.0963 94.128 80.8243 94.128C82.5523 94.128 83.4963 93.104 83.4963 91.312V85.488C83.4963 83.696 82.5523 82.672 80.8243 82.672C79.0963 82.672 78.1523 83.696 78.1523 85.488ZM79.9123 91.424V85.376C79.9123 84.576 80.2643 84.272 80.8243 84.272C81.3843 84.272 81.7363 84.576 81.7363 85.376V91.424C81.7363 92.224 81.3843 92.528 80.8243 92.528C80.2643 92.528 79.9123 92.224 79.9123 91.424ZM84.128 82.8V84.4H85.968V94H87.728V84.4H89.568V82.8H84.128ZM92.1511 94L93.6231 88.864L94.3431 86.112V94H95.9271V82.8H93.9911L92.5511 87.424L91.9111 89.888V82.8H90.3431V94H92.1511ZM99.8273 82.8H97.1713V94H99.9393C101.699 94 102.611 93.072 102.611 91.344V90.432C102.611 89.248 102.243 88.4 101.299 88.032C102.083 87.664 102.435 86.928 102.435 85.776V85.376C102.435 83.648 101.651 82.8 99.8273 82.8ZM98.9313 84.4H99.7793C100.403 84.4 100.675 84.752 100.675 85.552V86.176C100.675 87.072 100.275 87.36 99.6193 87.36H98.9313V84.4ZM98.9313 88.96H99.7153C100.515 88.96 100.851 89.28 100.851 90.32V91.296C100.851 92.128 100.531 92.4 99.9393 92.4H98.9313V88.96ZM109.367 94L107.575 82.8H104.999L103.207 94H104.823L105.127 91.968H107.287L107.591 94H109.367ZM105.351 90.448L106.199 84.784L107.047 90.448H105.351ZM110.187 82.8V94H114.795V95.504H116.507V92.432H115.739V82.8H113.947V92.4H111.947V82.8H110.187ZM119.276 94L120.748 88.864L121.468 86.112V94H123.052V82.8H121.116L119.676 87.424L119.036 89.888V82.8H117.468V94H119.276ZM124.152 85.488V91.312C124.152 93.104 125.096 94.128 126.824 94.128C128.552 94.128 129.496 93.104 129.496 91.312V85.488C129.496 83.696 128.552 82.672 126.824 82.672C125.096 82.672 124.152 83.696 124.152 85.488ZM125.912 91.424V85.376C125.912 84.576 126.264 84.272 126.824 84.272C127.384 84.272 127.736 84.576 127.736 85.376V91.424C127.736 92.224 127.384 92.528 126.824 92.528C126.264 92.528 125.912 92.224 125.912 91.424ZM132.4 94V89.2H134.4V94H136.192V82.8H134.4V87.6H132.4V82.8H130.64V94H132.4ZM139.228 94V89.2H141.228V94H143.02V82.8H141.228V87.6H139.228V82.8H137.468V94H139.228ZM144.296 94H146.888C148.648 94 149.512 93.024 149.512 91.232V89.776C149.512 87.984 148.648 87.008 146.888 87.008H146.056V82.8H144.296V94ZM150.52 94H152.28V82.8H150.52V94ZM146.888 92.4H146.056V88.608H146.888C147.448 88.608 147.752 88.864 147.752 89.664V91.344C147.752 92.144 147.448 92.4 146.888 92.4ZM157.178 80.304C157.13 80.896 156.858 81.04 156.378 81.04C155.914 81.04 155.674 80.896 155.626 80.304H154.538C154.57 81.392 155.146 82.08 156.378 82.08C157.626 82.08 158.25 81.392 158.25 80.304H157.178ZM156.842 88.864L155.37 94H153.562V82.8H155.13V89.888L155.77 87.424L157.21 82.8H159.146V94H157.562V86.112L156.842 88.864ZM164.666 94V84.4H166.666V94H168.458V82.8H162.906V94H164.666ZM169.59 85.488V91.312C169.59 93.104 170.534 94.128 172.262 94.128C173.99 94.128 174.934 93.104 174.934 91.312V85.488C174.934 83.696 173.99 82.672 172.262 82.672C170.534 82.672 169.59 83.696 169.59 85.488ZM171.35 91.424V85.376C171.35 84.576 171.702 84.272 172.262 84.272C172.822 84.272 173.174 84.576 173.174 85.376V91.424C173.174 92.224 172.822 92.528 172.262 92.528C171.702 92.528 171.35 92.224 171.35 91.424ZM181.182 89.824H179.518V91.424C179.518 92.224 179.166 92.512 178.606 92.512C178.046 92.512 177.694 92.224 177.694 91.424V85.376C177.694 84.576 178.046 84.272 178.606 84.272C179.166 84.272 179.518 84.576 179.518 85.376V86.576H181.182V85.488C181.182 83.696 180.286 82.672 178.558 82.672C176.83 82.672 175.934 83.696 175.934 85.488V91.312C175.934 93.104 176.83 94.128 178.558 94.128C180.286 94.128 181.182 93.104 181.182 91.312V89.824ZM181.737 82.8V84.4H183.577V94H185.337V84.4H187.177V82.8H181.737ZM71.4 103.52V100.4H74.44V98.8H69.64V110H74.44V108.4H71.4V105.12H73.816V103.52H71.4ZM80.6026 103.328V98.8H78.8586V103.328L76.7786 98.8H75.0186L77.1946 103.392L75.0186 110H76.8266L78.4266 105.024L78.8586 105.888V110H80.6026V105.888L81.0346 105.04L82.6346 110H84.4426L82.2826 103.344L84.4426 98.8H82.6826L80.6026 103.328ZM86.9469 103.52V100.4H89.9869V98.8H85.1869V110H89.9869V108.4H86.9469V105.12H89.3629V103.52H86.9469ZM92.8375 110V105.2H94.8375V110H96.6295V98.8H94.8375V103.6H92.8375V98.8H91.0775V110H92.8375ZM99.6656 103.52V100.4H102.706V98.8H97.9056V110H102.706V108.4H99.6656V105.12H102.082V103.52H99.6656ZM108.884 111.504H110.628V108.432H109.86V98.8H104.932L104.532 106.976C104.5 107.632 104.404 108.048 104.1 108.432H103.412V111.504H105.124V110H108.884V111.504ZM106.26 106.944L106.58 100.4H108.068V108.432H105.764C106.052 108.16 106.212 107.792 106.26 106.944ZM113.369 103.52V100.4H116.409V98.8H111.609V110H116.409V108.4H113.369V105.12H115.785V103.52H113.369ZM117.003 108.416V110.016H117.275C119.035 110.016 119.771 109.216 119.835 107.168L120.027 100.4H121.563V110H123.355V98.8H118.379L118.091 107.264C118.059 108.304 117.803 108.416 117.003 108.416ZM124.703 110H127.295C129.055 110 129.919 109.024 129.919 107.232V105.776C129.919 103.984 129.055 103.008 127.295 103.008H126.463V98.8H124.703V110ZM127.295 108.4H126.463V104.608H127.295C127.855 104.608 128.159 104.864 128.159 105.664V107.344C128.159 108.144 127.855 108.4 127.295 108.4ZM132.728 110V105.2H134.728V110H136.52V98.8H134.728V103.6H132.728V98.8H130.968V110H132.728ZM137.652 101.488V107.312C137.652 109.104 138.596 110.128 140.324 110.128C142.052 110.128 142.996 109.104 142.996 107.312V101.488C142.996 99.696 142.052 98.672 140.324 98.672C138.596 98.672 137.652 99.696 137.652 101.488ZM139.412 107.424V101.376C139.412 100.576 139.764 100.272 140.324 100.272C140.884 100.272 141.236 100.576 141.236 101.376V107.424C141.236 108.224 140.884 108.528 140.324 108.528C139.764 108.528 139.412 108.224 139.412 107.424ZM145.9 103.52V100.4H148.94V98.8H144.14V110H148.94V108.4H145.9V105.12H148.316V103.52H145.9ZM155.907 101.552V102.176C155.907 103.072 155.507 103.36 154.851 103.36H154.323V104.96H154.755C155.555 104.96 155.907 105.344 155.907 106.384V107.264C155.907 108.256 155.555 108.528 154.995 108.528C154.435 108.528 154.083 108.224 154.083 107.424V106.08H152.419V107.312C152.419 109.104 153.315 110.128 155.043 110.128C156.771 110.128 157.667 109.104 157.667 107.312V106.432C157.667 105.296 157.315 104.464 156.435 104.08C157.283 103.728 157.667 102.976 157.667 101.776V101.488C157.667 99.696 156.771 98.672 155.043 98.672C153.315 98.672 152.451 99.664 152.451 101.456V102.288H154.067V101.376C154.067 100.576 154.435 100.272 154.995 100.272C155.555 100.272 155.907 100.544 155.907 101.552ZM164.555 110L162.763 98.8H160.187L158.395 110H160.011L160.315 107.968H162.475L162.779 110H164.555ZM160.539 106.448L161.387 100.784L162.235 106.448H160.539ZM170.462 111.504H172.206V108.432H171.438V98.8H166.51L166.11 106.976C166.078 107.632 165.982 108.048 165.678 108.432H164.99V111.504H166.702V110H170.462V111.504ZM167.838 106.944L168.158 100.4H169.646V108.432H167.342C167.63 108.16 167.79 107.792 167.838 106.944ZM178.883 110L177.091 98.8H174.515L172.723 110H174.339L174.643 107.968H176.803L177.107 110H178.883ZM174.867 106.448L175.715 100.784L176.563 106.448H174.867ZM181.463 110V105.2H183.463V110H185.255V98.8H183.463V103.6H181.463V98.8H179.703V110H181.463ZM188.339 110L189.811 104.864L190.531 102.112V110H192.115V98.8H190.179L188.739 103.424L188.099 105.888V98.8H186.531V110H188.339ZM195.119 103.52V100.4H198.159V98.8H193.359V110H198.159V108.4H195.119V105.12H197.535V103.52H195.119Z" fill="white"/>
<path d="M35.6344 262V252.4H37.6344V262H39.4264V250.8H33.8744V262H35.6344ZM40.1905 250.8V252.4H42.0305V262H43.7905V252.4H45.6305V250.8H40.1905Z" fill="#EBFF00"/>
<path opacity="0.33" d="M72.232 250.8H69.64V262H71.4V257.792H72.232C73.992 257.792 74.856 256.816 74.856 255.024V253.568C74.856 251.776 73.992 250.8 72.232 250.8ZM71.4 252.4H72.232C72.792 252.4 73.096 252.656 73.096 253.456V255.136C73.096 255.936 72.792 256.192 72.232 256.192H71.4V252.4ZM81.3673 262L79.5753 250.8H76.9993L75.2073 262H76.8233L77.1273 259.968H79.2873L79.5913 262H81.3673ZM77.3513 258.448L78.1993 252.784L79.0473 258.448H77.3513ZM85.5789 253.552V254.176C85.5789 255.072 85.1789 255.36 84.5229 255.36H83.9949V256.96H84.4269C85.2269 256.96 85.5789 257.344 85.5789 258.384V259.264C85.5789 260.256 85.2269 260.528 84.6669 260.528C84.1069 260.528 83.7549 260.224 83.7549 259.424V258.08H82.0909V259.312C82.0909 261.104 82.9869 262.128 84.7149 262.128C86.4429 262.128 87.3389 261.104 87.3389 259.312V258.432C87.3389 257.296 86.9869 256.464 86.1069 256.08C86.9549 255.728 87.3389 254.976 87.3389 253.776V253.488C87.3389 251.696 86.4429 250.672 84.7149 250.672C82.9869 250.672 82.1229 251.664 82.1229 253.456V254.288H83.7389V253.376C83.7389 252.576 84.1069 252.272 84.6669 252.272C85.2269 252.272 85.5789 252.544 85.5789 253.552ZM88.5466 262H91.3306C93.0906 262 93.9866 261.024 93.9866 259.232V258.032C93.9866 256.24 93.0906 255.264 91.3306 255.264H90.3066V252.4H93.4746V250.8H88.5466V262ZM91.3306 260.4H90.3066V256.864H91.3306C91.8906 256.864 92.2266 257.12 92.2266 257.92V259.344C92.2266 260.144 91.8906 260.4 91.3306 260.4ZM95.0273 253.488V259.312C95.0273 261.104 95.9713 262.128 97.6993 262.128C99.4273 262.128 100.371 261.104 100.371 259.312V253.488C100.371 251.696 99.4273 250.672 97.6993 250.672C95.9713 250.672 95.0273 251.696 95.0273 253.488ZM96.7873 259.424V253.376C96.7873 252.576 97.1393 252.272 97.6993 252.272C98.2593 252.272 98.6113 252.576 98.6113 253.376V259.424C98.6113 260.224 98.2593 260.528 97.6993 260.528C97.1393 260.528 96.7873 260.224 96.7873 259.424ZM104.107 250.8H101.515V262H103.275V257.792H104.107C105.867 257.792 106.731 256.816 106.731 255.024V253.568C106.731 251.776 105.867 250.8 104.107 250.8ZM103.275 252.4H104.107C104.667 252.4 104.971 252.656 104.971 253.456V255.136C104.971 255.936 104.667 256.192 104.107 256.192H103.275V252.4ZM107.546 262H110.138C111.898 262 112.762 261.024 112.762 259.232V257.776C112.762 255.984 111.898 255.008 110.138 255.008H109.306V250.8H107.546V262ZM113.77 262H115.53V250.8H113.77V262ZM110.138 260.4H109.306V256.608H110.138C110.698 256.608 111.002 256.864 111.002 257.664V259.344C111.002 260.144 110.698 260.4 110.138 260.4ZM118.784 250.8V252.4H120.624V262H122.384V252.4H124.224V250.8H118.784ZM124.855 253.488V259.312C124.855 261.104 125.799 262.128 127.527 262.128C129.255 262.128 130.199 261.104 130.199 259.312V253.488C130.199 251.696 129.255 250.672 127.527 250.672C125.799 250.672 124.855 251.696 124.855 253.488ZM126.615 259.424V253.376C126.615 252.576 126.967 252.272 127.527 252.272C128.087 252.272 128.439 252.576 128.439 253.376V259.424C128.439 260.224 128.087 260.528 127.527 260.528C126.967 260.528 126.615 260.224 126.615 259.424ZM133.103 262V252.4H135.103V262H136.895V250.8H131.343V262H133.103ZM138.027 253.488V259.312C138.027 261.104 138.971 262.128 140.699 262.128C142.427 262.128 143.371 261.104 143.371 259.312V253.488C143.371 251.696 142.427 250.672 140.699 250.672C138.971 250.672 138.027 251.696 138.027 253.488ZM139.787 259.424V253.376C139.787 252.576 140.139 252.272 140.699 252.272C141.259 252.272 141.611 252.576 141.611 253.376V259.424C141.611 260.224 141.259 260.528 140.699 260.528C140.139 260.528 139.787 260.224 139.787 259.424ZM147.171 250.8H144.515V262H147.283C149.043 262 149.955 261.072 149.955 259.344V258.432C149.955 257.248 149.587 256.4 148.643 256.032C149.427 255.664 149.779 254.928 149.779 253.776V253.376C149.779 251.648 148.995 250.8 147.171 250.8ZM146.275 252.4H147.123C147.747 252.4 148.019 252.752 148.019 253.552V254.176C148.019 255.072 147.619 255.36 146.963 255.36H146.275V252.4ZM146.275 256.96H147.059C147.859 256.96 148.195 257.28 148.195 258.32V259.296C148.195 260.128 147.875 260.4 147.283 260.4H146.275V256.96ZM156.619 250.8H156.075C154.315 250.8 153.611 251.456 153.611 253.248V259.552C153.611 261.344 154.315 262 156.075 262H156.619V260.56H156.187C155.627 260.56 155.371 260.352 155.371 259.552V253.248C155.371 252.448 155.627 252.24 156.187 252.24H156.619V250.8ZM160.171 250.8H157.515V262H160.283C162.043 262 162.955 261.072 162.955 259.344V258.432C162.955 257.248 162.587 256.4 161.643 256.032C162.427 255.664 162.779 254.928 162.779 253.776V253.376C162.779 251.648 161.995 250.8 160.171 250.8ZM159.275 252.4H160.123C160.747 252.4 161.019 252.752 161.019 253.552V254.176C161.019 255.072 160.619 255.36 159.963 255.36H159.275V252.4ZM159.275 256.96H160.059C160.859 256.96 161.195 257.28 161.195 258.32V259.296C161.195 260.128 160.875 260.4 160.283 260.4H159.275V256.96ZM165.823 262L167.295 256.864L168.015 254.112V262H169.599V250.8H167.663L166.223 255.424L165.583 257.888V250.8H164.015V262H165.823ZM175.931 263.504H177.675V260.432H176.907V250.8H171.979L171.579 258.976C171.547 259.632 171.451 260.048 171.147 260.432H170.459V263.504H172.171V262H175.931V263.504ZM173.307 258.944L173.627 252.4H175.115V260.432H172.811C173.099 260.16 173.259 259.792 173.307 258.944ZM180.416 255.52V252.4H183.456V250.8H178.656V262H183.456V260.4H180.416V257.12H182.832V255.52H180.416ZM184.402 253.488V259.312C184.402 261.104 185.346 262.128 187.074 262.128C188.802 262.128 189.746 261.104 189.746 259.312V253.488C189.746 251.696 188.802 250.672 187.074 250.672C185.346 250.672 184.402 251.696 184.402 253.488ZM186.162 259.424V253.376C186.162 252.576 186.514 252.272 187.074 252.272C187.634 252.272 187.986 252.576 187.986 253.376V259.424C187.986 260.224 187.634 260.528 187.074 260.528C186.514 260.528 186.162 260.224 186.162 259.424ZM194.794 259.152L196.682 250.8H194.842L194.042 254.64L193.626 257.248L193.082 254.624L192.122 250.8H190.378L192.81 259.44L192.794 259.536C192.65 260.352 192.138 260.512 191.242 260.448V262.016C193.69 262.176 194.378 261.168 194.794 259.152ZM200.013 250.8H197.421V262H199.181V257.792H200.013C201.773 257.792 202.637 256.816 202.637 255.024V253.568C202.637 251.776 201.773 250.8 200.013 250.8ZM199.181 252.4H200.013C200.573 252.4 200.877 252.656 200.877 253.456V255.136C200.877 255.936 200.573 256.192 200.013 256.192H199.181V252.4ZM203.309 253.488V259.312C203.309 261.104 204.253 262.128 205.981 262.128C207.709 262.128 208.653 261.104 208.653 259.312V253.488C208.653 251.696 207.709 250.672 205.981 250.672C204.253 250.672 203.309 251.696 203.309 253.488ZM205.069 259.424V253.376C205.069 252.576 205.421 252.272 205.981 252.272C206.541 252.272 206.893 252.576 206.893 253.376V259.424C206.893 260.224 206.541 260.528 205.981 260.528C205.421 260.528 205.069 260.224 205.069 259.424ZM212.1 257.536L213.812 262H215.62L213.172 255.792L215.62 250.8H213.86L211.556 255.68V250.8H209.796V262H211.556V258.56L212.1 257.536ZM216.581 250.8H216.037V252.24H216.469C217.029 252.24 217.285 252.448 217.285 253.248V259.552C217.285 260.352 217.029 260.56 216.469 260.56H216.037V262H216.581C218.341 262 219.045 261.344 219.045 259.552V253.248C219.045 251.456 218.341 250.8 216.581 250.8Z" fill="white"/>
<path d="M38.8378 283.824H37.1738V285.424C37.1738 286.224 36.8218 286.512 36.2618 286.512C35.7018 286.512 35.3498 286.224 35.3498 285.424V279.376C35.3498 278.576 35.7018 278.272 36.2618 278.272C36.8218 278.272 37.1738 278.576 37.1738 279.376V280.576H38.8378V279.488C38.8378 277.696 37.9418 276.672 36.2138 276.672C34.4858 276.672 33.5898 277.696 33.5898 279.488V285.312C33.5898 287.104 34.4858 288.128 36.2138 288.128C37.9418 288.128 38.8378 287.104 38.8378 285.312V283.824ZM39.9216 288H42.7056C44.4656 288 45.3616 287.024 45.3616 285.232V284.032C45.3616 282.24 44.4656 281.264 42.7056 281.264H41.6816V278.4H44.8496V276.8H39.9216V288ZM42.7056 286.4H41.6816V282.864H42.7056C43.2656 282.864 43.6016 283.12 43.6016 283.92V285.344C43.6016 286.144 43.2656 286.4 42.7056 286.4Z" fill="#EBFF00"/>
<path opacity="0.33" d="M71.448 288L72.92 282.864L73.64 280.112V288H75.224V276.8H73.288L71.848 281.424L71.208 283.888V276.8H69.64V288H71.448ZM75.9561 276.8V278.4H77.7961V288H79.5561V278.4H81.3961V276.8H75.9561ZM82.0273 279.488V285.312C82.0273 287.104 82.9713 288.128 84.6993 288.128C86.4273 288.128 87.3713 287.104 87.3713 285.312V279.488C87.3713 277.696 86.4273 276.672 84.6993 276.672C82.9713 276.672 82.0273 277.696 82.0273 279.488ZM83.7873 285.424V279.376C83.7873 278.576 84.1393 278.272 84.6993 278.272C85.2593 278.272 85.6113 278.576 85.6113 279.376V285.424C85.6113 286.224 85.2593 286.528 84.6993 286.528C84.1393 286.528 83.7873 286.224 83.7873 285.424ZM88.531 288H90.291V278.4H93.171V276.8H88.531V288ZM96.1668 288L97.6388 282.864L98.3588 280.112V288H99.9428V276.8H98.0068L96.5668 281.424L95.9268 283.888V276.8H94.3588V288H96.1668ZM105.431 288V283.2H107.431V288H109.223V276.8H107.431V281.6H105.431V276.8H103.671V288H105.431ZM112.259 281.52V278.4H115.299V276.8H110.499V288H115.299V286.4H112.259V283.12H114.675V281.52H112.259ZM121.478 289.504H123.222V286.432H122.454V276.8H117.526L117.126 284.976C117.094 285.632 116.998 286.048 116.694 286.432H116.006V289.504H117.718V288H121.478V289.504ZM118.854 284.944L119.174 278.4H120.662V286.432H118.358C118.646 286.16 118.806 285.792 118.854 284.944ZM125.963 281.52V278.4H129.003V276.8H124.203V288H129.003V286.4H125.963V283.12H128.379V281.52H125.963ZM129.597 286.416V288.016H129.869C131.629 288.016 132.365 287.216 132.429 285.168L132.621 278.4H134.157V288H135.949V276.8H130.973L130.685 285.264C130.653 286.304 130.397 286.416 129.597 286.416ZM139.104 288L140.576 282.864L141.296 280.112V288H142.88V276.8H140.944L139.504 281.424L138.864 283.888V276.8H137.296V288H139.104ZM75.336 304L73.544 292.8H70.968L69.176 304H70.792L71.096 301.968H73.256L73.56 304H75.336ZM71.32 300.448L72.168 294.784L73.016 300.448H71.32ZM77.9156 304V299.2H79.9156V304H81.7076V292.8H79.9156V297.6H77.9156V292.8H76.1556V304H77.9156ZM82.8398 295.488V301.312C82.8398 303.104 83.7838 304.128 85.5118 304.128C87.2398 304.128 88.1838 303.104 88.1838 301.312V295.488C88.1838 293.696 87.2398 292.672 85.5118 292.672C83.7838 292.672 82.8398 293.696 82.8398 295.488ZM84.5998 301.424V295.376C84.5998 294.576 84.9518 294.272 85.5118 294.272C86.0718 294.272 86.4238 294.576 86.4238 295.376V301.424C86.4238 302.224 86.0718 302.528 85.5118 302.528C84.9518 302.528 84.5998 302.224 84.5998 301.424ZM91.0875 304V299.2H93.0875V304H94.8795V292.8H93.0875V297.6H91.0875V292.8H89.3275V304H91.0875ZM101.26 299.824H99.5956V301.424C99.5956 302.224 99.2436 302.512 98.6836 302.512C98.1236 302.512 97.7716 302.224 97.7716 301.424V295.376C97.7716 294.576 98.1236 294.272 98.6836 294.272C99.2436 294.272 99.5956 294.576 99.5956 295.376V296.576H101.26V295.488C101.26 293.696 100.364 292.672 98.6356 292.672C96.9076 292.672 96.0116 293.696 96.0116 295.488V301.312C96.0116 303.104 96.9076 304.128 98.6356 304.128C100.364 304.128 101.26 303.104 101.26 301.312V299.824ZM107.468 292.8H104.812V304H107.58C109.34 304 110.252 303.072 110.252 301.344V300.432C110.252 299.248 109.884 298.4 108.94 298.032C109.724 297.664 110.076 296.928 110.076 295.776V295.376C110.076 293.648 109.292 292.8 107.468 292.8ZM106.572 294.4H107.42C108.044 294.4 108.316 294.752 108.316 295.552V296.176C108.316 297.072 107.916 297.36 107.26 297.36H106.572V294.4ZM106.572 298.96H107.356C108.156 298.96 108.492 299.28 108.492 300.32V301.296C108.492 302.128 108.172 302.4 107.58 302.4H106.572V298.96ZM111.312 304H113.904C115.664 304 116.528 303.024 116.528 301.232V299.776C116.528 297.984 115.664 297.008 113.904 297.008H113.072V292.8H111.312V304ZM117.536 304H119.296V292.8H117.536V304ZM113.904 302.4H113.072V298.608H113.904C114.464 298.608 114.768 298.864 114.768 299.664V301.344C114.768 302.144 114.464 302.4 113.904 302.4ZM126.45 292.8H124.818L123.458 296.928L122.13 292.8H120.306L122.146 298.24L120.178 304H121.826L123.282 299.568L124.722 304H126.578L124.61 298.24L126.45 292.8ZM127.309 295.488V301.312C127.309 303.104 128.253 304.128 129.981 304.128C131.709 304.128 132.653 303.104 132.653 301.312V295.488C132.653 293.696 131.709 292.672 129.981 292.672C128.253 292.672 127.309 293.696 127.309 295.488ZM129.069 301.424V295.376C129.069 294.576 129.421 294.272 129.981 294.272C130.541 294.272 130.893 294.576 130.893 295.376V301.424C130.893 302.224 130.541 302.528 129.981 302.528C129.421 302.528 129.069 302.224 129.069 301.424ZM138.884 305.504H140.628V302.432H139.86V292.8H134.932L134.532 300.976C134.5 301.632 134.404 302.048 134.1 302.432H133.412V305.504H135.124V304H138.884V305.504ZM136.26 300.944L136.58 294.4H138.068V302.432H135.764C136.052 302.16 136.212 301.792 136.26 300.944ZM143.369 304V299.2H145.369V304H147.161V292.8H145.369V297.6H143.369V292.8H141.609V304H143.369ZM148.437 304H151.029C152.789 304 153.653 303.024 153.653 301.232V299.776C153.653 297.984 152.789 297.008 151.029 297.008H150.197V292.8H148.437V304ZM154.661 304H156.421V292.8H154.661V304ZM151.029 302.4H150.197V298.608H151.029C151.589 298.608 151.893 298.864 151.893 299.664V301.344C151.893 302.144 151.589 302.4 151.029 302.4ZM163.575 292.8H161.943L160.583 296.928L159.255 292.8H157.431L159.271 298.24L157.303 304H158.951L160.407 299.568L161.847 304H163.703L161.735 298.24L163.575 292.8Z" fill="white"/>
<path d="M36.4601 318.8H33.8041V330H36.5721C38.3321 330 39.2441 329.072 39.2441 327.344V326.432C39.2441 325.248 38.8761 324.4 37.9321 324.032C38.7161 323.664 39.0681 322.928 39.0681 321.776V321.376C39.0681 319.648 38.2841 318.8 36.4601 318.8ZM35.5641 320.4H36.4121C37.0361 320.4 37.3081 320.752 37.3081 321.552V322.176C37.3081 323.072 36.9081 323.36 36.2521 323.36H35.5641V320.4ZM35.5641 324.96H36.3481C37.1481 324.96 37.4841 325.28 37.4841 326.32V327.296C37.4841 328.128 37.1641 328.4 36.5721 328.4H35.5641V324.96ZM45.4081 325.824H43.7441V327.424C43.7441 328.224 43.3921 328.512 42.8321 328.512C42.2721 328.512 41.9201 328.224 41.9201 327.424V321.376C41.9201 320.576 42.2721 320.272 42.8321 320.272C43.3921 320.272 43.7441 320.576 43.7441 321.376V322.576H45.4081V321.488C45.4081 319.696 44.5121 318.672 42.7841 318.672C41.0561 318.672 40.1601 319.696 40.1601 321.488V327.312C40.1601 329.104 41.0561 330.128 42.7841 330.128C44.5121 330.128 45.4081 329.104 45.4081 327.312V325.824Z" fill="#EBFF00"/>
<path opacity="0.33" d="M72.296 318.8H69.64V330H72.408C74.168 330 75.08 329.072 75.08 327.344V326.432C75.08 325.248 74.712 324.4 73.768 324.032C74.552 323.664 74.904 322.928 74.904 321.776V321.376C74.904 319.648 74.12 318.8 72.296 318.8ZM71.4 320.4H72.248C72.872 320.4 73.144 320.752 73.144 321.552V322.176C73.144 323.072 72.744 323.36 72.088 323.36H71.4V320.4ZM71.4 324.96H72.184C72.984 324.96 73.32 325.28 73.32 326.32V327.296C73.32 328.128 73 328.4 72.408 328.4H71.4V324.96ZM76.14 330H78.732C80.492 330 81.356 329.024 81.356 327.232V325.776C81.356 323.984 80.492 323.008 78.732 323.008H77.9V318.8H76.14V330ZM82.364 330H84.124V318.8H82.364V330ZM78.732 328.4H77.9V324.608H78.732C79.292 324.608 79.596 324.864 79.596 325.664V327.344C79.596 328.144 79.292 328.4 78.732 328.4ZM91.2776 318.8H89.6456L88.2856 322.928L86.9576 318.8H85.1336L86.9736 324.24L85.0056 330H86.6536L88.1096 325.568L89.5496 330H91.4056L89.4376 324.24L91.2776 318.8ZM92.1366 321.488V327.312C92.1366 329.104 93.0806 330.128 94.8086 330.128C96.5366 330.128 97.4806 329.104 97.4806 327.312V321.488C97.4806 319.696 96.5366 318.672 94.8086 318.672C93.0806 318.672 92.1366 319.696 92.1366 321.488ZM93.8966 327.424V321.376C93.8966 320.576 94.2486 320.272 94.8086 320.272C95.3686 320.272 95.7206 320.576 95.7206 321.376V327.424C95.7206 328.224 95.3686 328.528 94.8086 328.528C94.2486 328.528 93.8966 328.224 93.8966 327.424ZM103.712 331.504H105.456V328.432H104.688V318.8H99.7604L99.3604 326.976C99.3284 327.632 99.2324 328.048 98.9284 328.432H98.2404V331.504H99.9524V330H103.712V331.504ZM101.088 326.944L101.408 320.4H102.896V328.432H100.592C100.88 328.16 101.04 327.792 101.088 326.944ZM108.197 330V325.2H110.197V330H111.989V318.8H110.197V323.6H108.197V318.8H106.437V330H108.197ZM113.121 321.488V327.312C113.121 329.104 114.065 330.128 115.793 330.128C117.521 330.128 118.465 329.104 118.465 327.312V321.488C118.465 319.696 117.521 318.672 115.793 318.672C114.065 318.672 113.121 319.696 113.121 321.488ZM114.881 327.424V321.376C114.881 320.576 115.233 320.272 115.793 320.272C116.353 320.272 116.705 320.576 116.705 321.376V327.424C116.705 328.224 116.353 328.528 115.793 328.528C115.233 328.528 114.881 328.224 114.881 327.424ZM123.225 316.304C123.177 316.896 122.905 317.04 122.425 317.04C121.961 317.04 121.721 316.896 121.673 316.304H120.585C120.617 317.392 121.193 318.08 122.425 318.08C123.673 318.08 124.297 317.392 124.297 316.304H123.225ZM122.889 324.864L121.417 330H119.609V318.8H121.177V325.888L121.817 323.424L123.257 318.8H125.193V330H123.609V322.112L122.889 324.864Z" fill="white"/>
<path opacity="0.33" d="M69.128 192.8V194.4H70.968V204H72.728V194.4H74.568V192.8H69.128ZM77.9351 192.8H75.3431V204H77.1031V199.792H77.9351C79.6951 199.792 80.5591 198.816 80.5591 197.024V195.568C80.5591 193.776 79.6951 192.8 77.9351 192.8ZM77.1031 194.4H77.9351C78.4951 194.4 78.7991 194.656 78.7991 195.456V197.136C78.7991 197.936 78.4951 198.192 77.9351 198.192H77.1031V194.4ZM83.1344 197.52V194.4H86.1744V192.8H81.3744V204H86.1744V202.4H83.1344V199.12H85.5504V197.52H83.1344ZM89.025 204V199.2H91.025V204H92.817V192.8H91.025V197.6H89.025V192.8H87.265V204H89.025ZM99.1811 205.504H100.925V202.432H100.157V192.8H95.2291L94.8291 200.976C94.7971 201.632 94.7011 202.048 94.3971 202.432H93.7091V205.504H95.4211V204H99.1811V205.504ZM96.5571 200.944L96.8771 194.4H98.3651V202.432H96.0611C96.3491 202.16 96.5091 201.792 96.5571 200.944ZM101.762 195.488V201.312C101.762 203.104 102.706 204.128 104.434 204.128C106.162 204.128 107.106 203.104 107.106 201.312V195.488C107.106 193.696 106.162 192.672 104.434 192.672C102.706 192.672 101.762 193.696 101.762 195.488ZM103.522 201.424V195.376C103.522 194.576 103.874 194.272 104.434 194.272C104.994 194.272 105.346 194.576 105.346 195.376V201.424C105.346 202.224 104.994 202.528 104.434 202.528C103.874 202.528 103.522 202.224 103.522 201.424ZM110.905 192.8H108.249V204H111.017C112.777 204 113.689 203.072 113.689 201.344V200.432C113.689 199.248 113.321 198.4 112.377 198.032C113.161 197.664 113.513 196.928 113.513 195.776V195.376C113.513 193.648 112.729 192.8 110.905 192.8ZM110.009 194.4H110.857C111.481 194.4 111.753 194.752 111.753 195.552V196.176C111.753 197.072 111.353 197.36 110.697 197.36H110.009V194.4ZM110.009 198.96H110.793C111.593 198.96 111.929 199.28 111.929 200.32V201.296C111.929 202.128 111.609 202.4 111.017 202.4H110.009V198.96ZM114.749 204H117.341C119.101 204 119.965 203.024 119.965 201.232V199.776C119.965 197.984 119.101 197.008 117.341 197.008H116.509V192.8H114.749V204ZM120.973 204H122.733V192.8H120.973V204ZM117.341 202.4H116.509V198.608H117.341C117.901 198.608 118.205 198.864 118.205 199.664V201.344C118.205 202.144 117.901 202.4 117.341 202.4ZM127.631 190.304C127.583 190.896 127.311 191.04 126.831 191.04C126.367 191.04 126.127 190.896 126.079 190.304H124.991C125.023 191.392 125.599 192.08 126.831 192.08C128.079 192.08 128.703 191.392 128.703 190.304H127.631ZM127.295 198.864L125.823 204H124.015V192.8H125.583V199.888L126.223 197.424L127.663 192.8H129.599V204H128.015V196.112L127.295 198.864ZM134.799 199.984H133.135V201.312C133.135 203.104 134.031 204.128 135.759 204.128C137.487 204.128 138.383 203.104 138.383 201.312V195.488C138.383 193.696 137.487 192.672 135.759 192.672C134.031 192.672 133.167 193.696 133.167 195.488V196.432H134.799V195.376C134.799 194.576 135.151 194.272 135.711 194.272C136.271 194.272 136.623 194.576 136.623 195.376V197.408H135.007V199.008H136.623V201.424C136.623 202.224 136.271 202.512 135.711 202.512C135.151 202.512 134.799 202.224 134.799 201.424V199.984ZM142.667 202.736V204H144.395V202.736H145.051C146.811 202.736 147.675 201.76 147.675 199.968V196.912C147.675 195.12 146.811 194.144 145.051 194.144H144.395V192.8H142.667V194.144H142.011C140.251 194.144 139.387 195.12 139.387 196.912V199.968C139.387 201.76 140.251 202.736 142.011 202.736H142.667ZM142.667 195.696V201.2H142.011C141.451 201.2 141.131 200.88 141.131 200.08V196.8C141.131 196 141.451 195.696 142.011 195.696H142.667ZM144.395 195.696H145.051C145.611 195.696 145.931 196 145.931 196.8V200.08C145.931 200.88 145.611 201.2 145.051 201.2H144.395V195.696ZM151.995 202.736V204H153.723V202.736H154.379C156.139 202.736 157.003 201.76 157.003 199.968V196.912C157.003 195.12 156.139 194.144 154.379 194.144H153.723V192.8H151.995V194.144H151.339C149.579 194.144 148.715 195.12 148.715 196.912V199.968C148.715 201.76 149.579 202.736 151.339 202.736H151.995ZM151.995 195.696V201.2H151.339C150.779 201.2 150.459 200.88 150.459 200.08V196.8C150.459 196 150.779 195.696 151.339 195.696H151.995ZM153.723 195.696H154.379C154.939 195.696 155.259 196 155.259 196.8V200.08C155.259 200.88 154.939 201.2 154.379 201.2H153.723V195.696ZM159.947 197.52V194.4H162.987V192.8H158.187V204H162.987V202.4H159.947V199.12H162.363V197.52H159.947ZM166.382 199.536L168.094 204H169.902L167.454 197.792L169.902 192.8H168.141L165.838 197.68V192.8H164.078V204H165.838V200.56L166.382 199.536ZM170.191 192.8V194.4H172.031V204H173.791V194.4H175.631V192.8H170.191ZM182.01 192.8H181.466C179.706 192.8 179.002 193.456 179.002 195.248V201.552C179.002 203.344 179.706 204 181.466 204H182.01V202.56H181.578C181.018 202.56 180.762 202.352 180.762 201.552V195.248C180.762 194.448 181.018 194.24 181.578 194.24H182.01V192.8ZM184.666 204V194.4H186.666V204H188.458V192.8H182.906V204H184.666ZM189.59 195.488V201.312C189.59 203.104 190.534 204.128 192.262 204.128C193.99 204.128 194.934 203.104 194.934 201.312V195.488C194.934 193.696 193.99 192.672 192.262 192.672C190.534 192.672 189.59 193.696 189.59 195.488ZM191.35 201.424V195.376C191.35 194.576 191.702 194.272 192.262 194.272C192.822 194.272 193.174 194.576 193.174 195.376V201.424C193.174 202.224 192.822 202.528 192.262 202.528C191.702 202.528 191.35 202.224 191.35 201.424ZM201.182 199.824H199.518V201.424C199.518 202.224 199.166 202.512 198.606 202.512C198.046 202.512 197.694 202.224 197.694 201.424V195.376C197.694 194.576 198.046 194.272 198.606 194.272C199.166 194.272 199.518 194.576 199.518 195.376V196.576H201.182V195.488C201.182 193.696 200.286 192.672 198.558 192.672C196.83 192.672 195.934 193.696 195.934 195.488V201.312C195.934 203.104 196.83 204.128 198.558 204.128C200.286 204.128 201.182 203.104 201.182 201.312V199.824ZM201.737 192.8V194.4H203.577V204H205.337V194.4H207.177V192.8H201.737ZM213.093 192.8H210.437V204H213.205C214.965 204 215.877 203.072 215.877 201.344V200.432C215.877 199.248 215.509 198.4 214.565 198.032C215.349 197.664 215.701 196.928 215.701 195.776V195.376C215.701 193.648 214.917 192.8 213.093 192.8ZM212.197 194.4H213.045C213.669 194.4 213.941 194.752 213.941 195.552V196.176C213.941 197.072 213.541 197.36 212.885 197.36H212.197V194.4ZM212.197 198.96H212.981C213.781 198.96 214.117 199.28 214.117 200.32V201.296C214.117 202.128 213.797 202.4 213.205 202.4H212.197V198.96ZM221.725 199.536L223.437 204H225.245L222.797 197.792L225.245 192.8H223.485L221.181 197.68V192.8H219.421V204H221.181V200.56L221.725 199.536ZM231.742 204L229.95 192.8H227.374L225.582 204H227.198L227.502 201.968H229.662L229.966 204H231.742ZM227.726 200.448L228.574 194.784L229.422 200.448H227.726ZM234.322 204V199.2H236.322V204H238.114V192.8H236.322V197.6H234.322V192.8H232.562V204H234.322ZM245.086 204L243.294 192.8H240.718L238.926 204H240.542L240.846 201.968H243.006L243.31 204H245.086ZM241.07 200.448L241.918 194.784L242.766 200.448H241.07ZM245.41 202.416V204.016H245.682C247.442 204.016 248.178 203.216 248.242 201.168L248.434 194.4H249.97V204H251.762V192.8H246.786L246.498 201.264C246.466 202.304 246.21 202.416 245.41 202.416ZM254.869 197.52V194.4H257.909V192.8H253.109V204H257.909V202.4H254.869V199.12H257.285V197.52H254.869ZM259.159 192.8H258.615V194.24H259.047C259.607 194.24 259.863 194.448 259.863 195.248V201.552C259.863 202.352 259.607 202.56 259.047 202.56H258.615V204H259.159C260.919 204 261.623 203.344 261.623 201.552V195.248C261.623 193.456 260.919 192.8 259.159 192.8ZM71.4 220V210.4H73.4V220H75.192V208.8H69.64V220H71.4ZM76.3241 211.488V217.312C76.3241 219.104 77.2681 220.128 78.9961 220.128C80.7241 220.128 81.6681 219.104 81.6681 217.312V211.488C81.6681 209.696 80.7241 208.672 78.9961 208.672C77.2681 208.672 76.3241 209.696 76.3241 211.488ZM78.0841 217.424V211.376C78.0841 210.576 78.4361 210.272 78.9961 210.272C79.5561 210.272 79.9081 210.576 79.9081 211.376V217.424C79.9081 218.224 79.5561 218.528 78.9961 218.528C78.4361 218.528 78.0841 218.224 78.0841 217.424ZM87.8999 221.504H89.6439V218.432H88.8759V208.8H83.9479L83.5479 216.976C83.5159 217.632 83.4199 218.048 83.1159 218.432H82.4279V221.504H84.1399V220H87.8999V221.504ZM85.2759 216.944L85.5959 210.4H87.0839V218.432H84.7799C85.0679 218.16 85.2279 217.792 85.2759 216.944ZM92.9284 215.536L94.6404 220H96.4484L94.0004 213.792L96.4484 208.8H94.6884L92.3844 213.68V208.8H90.6244V220H92.3844V216.56L92.9284 215.536ZM102.945 220L101.153 208.8H98.5774L96.7854 220H98.4014L98.7054 217.968H100.865L101.169 220H102.945ZM98.9294 216.448L99.7774 210.784L100.625 216.448H98.9294ZM108.869 215.824H107.205V217.424C107.205 218.224 106.853 218.512 106.293 218.512C105.733 218.512 105.381 218.224 105.381 217.424V211.376C105.381 210.576 105.733 210.272 106.293 210.272C106.853 210.272 107.205 210.576 107.205 211.376V212.576H108.869V211.488C108.869 209.696 107.973 208.672 106.245 208.672C104.517 208.672 103.621 209.696 103.621 211.488V217.312C103.621 219.104 104.517 220.128 106.245 220.128C107.973 220.128 108.869 219.104 108.869 217.312V215.824ZM109.425 208.8V210.4H111.265V220H113.025V210.4H114.865V208.8H109.425ZM73.368 232.752L72.072 224.8H69.624V236H71.16V228.08L72.472 236H74.136L75.352 227.968V236H77.016V224.8H74.568L73.368 232.752ZM83.9923 236L82.2003 224.8H79.6243L77.8323 236H79.4483L79.7523 233.968H81.9123L82.2163 236H83.9923ZM79.9763 232.448L80.8243 226.784L81.6723 232.448H79.9763ZM89.9159 231.824H88.2519V233.424C88.2519 234.224 87.8999 234.512 87.3399 234.512C86.7799 234.512 86.4279 234.224 86.4279 233.424V227.376C86.4279 226.576 86.7799 226.272 87.3399 226.272C87.8999 226.272 88.2519 226.576 88.2519 227.376V228.576H89.9159V227.488C89.9159 225.696 89.0199 224.672 87.2919 224.672C85.5639 224.672 84.6679 225.696 84.6679 227.488V233.312C84.6679 235.104 85.5639 236.128 87.2919 236.128C89.0199 236.128 89.9159 235.104 89.9159 233.312V231.824ZM90.4718 224.8V226.4H92.3118V236H94.0718V226.4H95.9118V224.8H90.4718ZM98.4469 229.52V226.4H101.487V224.8H96.6869V236H101.487V234.4H98.4469V231.12H100.863V229.52H98.4469ZM105.17 224.8H102.578V236H104.338V231.792H105.17C106.93 231.792 107.794 230.816 107.794 229.024V227.568C107.794 225.776 106.93 224.8 105.17 224.8ZM104.338 226.4H105.17C105.73 226.4 106.034 226.656 106.034 227.456V229.136C106.034 229.936 105.73 230.192 105.17 230.192H104.338V226.4ZM112.337 232.752L111.041 224.8H108.593V236H110.129V228.08L111.441 236H113.105L114.321 227.968V236H115.985V224.8H113.537L112.337 232.752ZM122.961 236L121.169 224.8H118.593L116.801 236H118.417L118.721 233.968H120.881L121.185 236H122.961ZM118.945 232.448L119.793 226.784L120.641 232.448H118.945ZM127.397 222.304C127.349 222.896 127.077 223.04 126.597 223.04C126.133 223.04 125.893 222.896 125.845 222.304H124.757C124.789 223.392 125.365 224.08 126.597 224.08C127.845 224.08 128.469 223.392 128.469 222.304H127.397ZM127.061 230.864L125.589 236H123.781V224.8H125.349V231.888L125.989 229.424L127.429 224.8H129.365V236H127.781V228.112L127.061 230.864ZM132.4 236V231.2H134.4V236H136.192V224.8H134.4V229.6H132.4V224.8H130.64V236H132.4ZM142.556 237.504H144.3V234.432H143.532V224.8H138.604L138.204 232.976C138.172 233.632 138.076 234.048 137.772 234.432H137.084V237.504H138.796V236H142.556V237.504ZM139.932 232.944L140.252 226.4H141.74V234.432H139.436C139.724 234.16 139.884 233.792 139.932 232.944Z" fill="white"/>
<path d="M39.3121 192.8H37.5521V197.344C37.5521 198.096 37.2001 198.496 36.6401 198.496C36.0801 198.496 35.6161 198.144 35.6161 197.392V192.8H33.8561V197.536C33.8561 199.072 34.6081 200.112 36.0481 200.112C36.5281 200.112 37.1681 199.904 37.5521 199.488V204H39.3121V192.8ZM40.0968 192.8V194.4H41.9368V204H43.6968V194.4H45.5368V192.8H40.0968Z" fill="#EBFF00"/>
<path opacity="0.33" d="M69.128 150.8V152.4H70.968V162H72.728V152.4H74.568V150.8H69.128ZM77.9351 150.8H75.3431V162H77.1031V157.792H77.9351C79.6951 157.792 80.5591 156.816 80.5591 155.024V153.568C80.5591 151.776 79.6951 150.8 77.9351 150.8ZM77.1031 152.4H77.9351C78.4951 152.4 78.7991 152.656 78.7991 153.456V155.136C78.7991 155.936 78.4951 156.192 77.9351 156.192H77.1031V152.4ZM83.1344 155.52V152.4H86.1744V150.8H81.3744V162H86.1744V160.4H83.1344V157.12H85.5504V155.52H83.1344ZM89.025 162V157.2H91.025V162H92.817V150.8H91.025V155.6H89.025V150.8H87.265V162H89.025ZM99.1811 163.504H100.925V160.432H100.157V150.8H95.2291L94.8291 158.976C94.7971 159.632 94.7011 160.048 94.3971 160.432H93.7091V163.504H95.4211V162H99.1811V163.504ZM96.5571 158.944L96.8771 152.4H98.3651V160.432H96.0611C96.3491 160.16 96.5091 159.792 96.5571 158.944ZM101.762 153.488V159.312C101.762 161.104 102.706 162.128 104.434 162.128C106.162 162.128 107.106 161.104 107.106 159.312V153.488C107.106 151.696 106.162 150.672 104.434 150.672C102.706 150.672 101.762 151.696 101.762 153.488ZM103.522 159.424V153.376C103.522 152.576 103.874 152.272 104.434 152.272C104.994 152.272 105.346 152.576 105.346 153.376V159.424C105.346 160.224 104.994 160.528 104.434 160.528C103.874 160.528 103.522 160.224 103.522 159.424ZM110.905 150.8H108.249V162H111.017C112.777 162 113.689 161.072 113.689 159.344V158.432C113.689 157.248 113.321 156.4 112.377 156.032C113.161 155.664 113.513 154.928 113.513 153.776V153.376C113.513 151.648 112.729 150.8 110.905 150.8ZM110.009 152.4H110.857C111.481 152.4 111.753 152.752 111.753 153.552V154.176C111.753 155.072 111.353 155.36 110.697 155.36H110.009V152.4ZM110.009 156.96H110.793C111.593 156.96 111.929 157.28 111.929 158.32V159.296C111.929 160.128 111.609 160.4 111.017 160.4H110.009V156.96ZM114.749 162H117.341C119.101 162 119.965 161.024 119.965 159.232V157.776C119.965 155.984 119.101 155.008 117.341 155.008H116.509V150.8H114.749V162ZM120.973 162H122.733V150.8H120.973V162ZM117.341 160.4H116.509V156.608H117.341C117.901 156.608 118.205 156.864 118.205 157.664V159.344C118.205 160.144 117.901 160.4 117.341 160.4ZM127.631 148.304C127.583 148.896 127.311 149.04 126.831 149.04C126.367 149.04 126.127 148.896 126.079 148.304H124.991C125.023 149.392 125.599 150.08 126.831 150.08C128.079 150.08 128.703 149.392 128.703 148.304H127.631ZM127.295 156.864L125.823 162H124.015V150.8H125.583V157.888L126.223 155.424L127.663 150.8H129.599V162H128.015V154.112L127.295 156.864ZM136.495 160.736V162H138.223V160.736H138.879C140.639 160.736 141.503 159.76 141.503 157.968V154.912C141.503 153.12 140.639 152.144 138.879 152.144H138.223V150.8H136.495V152.144H135.839C134.079 152.144 133.215 153.12 133.215 154.912V157.968C133.215 159.76 134.079 160.736 135.839 160.736H136.495ZM136.495 153.696V159.2H135.839C135.279 159.2 134.959 158.88 134.959 158.08V154.8C134.959 154 135.279 153.696 135.839 153.696H136.495ZM138.223 153.696H138.879C139.439 153.696 139.759 154 139.759 154.8V158.08C139.759 158.88 139.439 159.2 138.879 159.2H138.223V153.696ZM142.543 153.488V159.312C142.543 161.104 143.487 162.128 145.215 162.128C146.943 162.128 147.887 161.104 147.887 159.312V153.488C147.887 151.696 146.943 150.672 145.215 150.672C143.487 150.672 142.543 151.696 142.543 153.488ZM144.303 159.424V153.376C144.303 152.576 144.655 152.272 145.215 152.272C145.775 152.272 146.127 152.576 146.127 153.376V159.424C146.127 160.224 145.775 160.528 145.215 160.528C144.655 160.528 144.303 160.224 144.303 159.424ZM150.791 162V157.2H152.791V162H154.583V150.8H152.791V155.6H150.791V150.8H149.031V162H150.791ZM161.463 150.8H160.919C159.159 150.8 158.455 151.456 158.455 153.248V159.552C158.455 161.344 159.159 162 160.919 162H161.463V160.56H161.031C160.471 160.56 160.215 160.352 160.215 159.552V153.248C160.215 152.448 160.471 152.24 161.031 152.24H161.463V150.8ZM164.119 162V152.4H166.119V162H167.911V150.8H162.359V162H164.119ZM169.043 153.488V159.312C169.043 161.104 169.987 162.128 171.715 162.128C173.443 162.128 174.387 161.104 174.387 159.312V153.488C174.387 151.696 173.443 150.672 171.715 150.672C169.987 150.672 169.043 151.696 169.043 153.488ZM170.803 159.424V153.376C170.803 152.576 171.155 152.272 171.715 152.272C172.275 152.272 172.627 152.576 172.627 153.376V159.424C172.627 160.224 172.275 160.528 171.715 160.528C171.155 160.528 170.803 160.224 170.803 159.424ZM180.635 157.824H178.971V159.424C178.971 160.224 178.619 160.512 178.059 160.512C177.499 160.512 177.147 160.224 177.147 159.424V153.376C177.147 152.576 177.499 152.272 178.059 152.272C178.619 152.272 178.971 152.576 178.971 153.376V154.576H180.635V153.488C180.635 151.696 179.739 150.672 178.011 150.672C176.283 150.672 175.387 151.696 175.387 153.488V159.312C175.387 161.104 176.283 162.128 178.011 162.128C179.739 162.128 180.635 161.104 180.635 159.312V157.824ZM181.191 150.8V152.4H183.031V162H184.791V152.4H186.631V150.8H181.191ZM192.546 150.8H189.89V162H192.658C194.418 162 195.33 161.072 195.33 159.344V158.432C195.33 157.248 194.962 156.4 194.018 156.032C194.802 155.664 195.154 154.928 195.154 153.776V153.376C195.154 151.648 194.37 150.8 192.546 150.8ZM191.65 152.4H192.498C193.122 152.4 193.394 152.752 193.394 153.552V154.176C193.394 155.072 192.994 155.36 192.338 155.36H191.65V152.4ZM191.65 156.96H192.434C193.234 156.96 193.57 157.28 193.57 158.32V159.296C193.57 160.128 193.25 160.4 192.658 160.4H191.65V156.96ZM201.178 157.536L202.89 162H204.698L202.25 155.792L204.698 150.8H202.938L200.634 155.68V150.8H198.874V162H200.634V158.56L201.178 157.536ZM211.195 162L209.403 150.8H206.827L205.035 162H206.651L206.955 159.968H209.115L209.419 162H211.195ZM207.179 158.448L208.027 152.784L208.875 158.448H207.179ZM213.775 162V157.2H215.775V162H217.567V150.8H215.775V155.6H213.775V150.8H212.015V162H213.775ZM224.539 162L222.747 150.8H220.171L218.379 162H219.995L220.299 159.968H222.459L222.763 162H224.539ZM220.523 158.448L221.371 152.784L222.219 158.448H220.523ZM224.863 160.416V162.016H225.135C226.895 162.016 227.631 161.216 227.695 159.168L227.887 152.4H229.423V162H231.215V150.8H226.239L225.951 159.264C225.919 160.304 225.663 160.416 224.863 160.416ZM234.322 155.52V152.4H237.362V150.8H232.562V162H237.362V160.4H234.322V157.12H236.738V155.52H234.322ZM238.613 150.8H238.069V152.24H238.501C239.061 152.24 239.317 152.448 239.317 153.248V159.552C239.317 160.352 239.061 160.56 238.501 160.56H238.069V162H238.613C240.373 162 241.077 161.344 241.077 159.552V153.248C241.077 151.456 240.373 150.8 238.613 150.8ZM71.448 178L72.92 172.864L73.64 170.112V178H75.224V166.8H73.288L71.848 171.424L71.208 173.888V166.8H69.64V178H71.448ZM81.5561 179.504H83.3001V176.432H82.5321V166.8H77.6041L77.2041 174.976C77.1721 175.632 77.0761 176.048 76.7721 176.432H76.0841V179.504H77.7961V178H81.5561V179.504ZM78.9321 174.944L79.2521 168.4H80.7401V176.432H78.4361C78.7241 176.16 78.8841 175.792 78.9321 174.944ZM86.0406 171.52V168.4H89.0806V166.8H84.2806V178H89.0806V176.4H86.0406V173.12H88.4566V171.52H86.0406ZM91.9793 178L93.4513 172.864L94.1713 170.112V178H95.7553V166.8H93.8193L92.3793 171.424L91.7393 173.888V166.8H90.1713V178H91.9793ZM104.572 179.504H106.316V176.432H105.548V166.8H100.62L100.22 174.976C100.188 175.632 100.092 176.048 99.7878 176.432H99.0998V179.504H100.812V178H104.572V179.504ZM101.948 174.944L102.268 168.4H103.756V176.432H101.452C101.74 176.16 101.9 175.792 101.948 174.944ZM106.8 176.416V178.016H107.072C108.832 178.016 109.568 177.216 109.632 175.168L109.824 168.4H111.36V178H113.152V166.8H108.176L107.888 175.264C107.856 176.304 107.6 176.416 106.8 176.416ZM114.179 178H115.971C116.067 177.712 116.131 177.536 116.131 176.624V174.864C116.131 173.824 116.483 173.44 117.283 173.44H117.891V178H119.651V166.8H116.995C115.171 166.8 114.387 167.648 114.387 169.376V170.256C114.387 171.408 114.755 172.16 115.539 172.528C114.659 172.896 114.371 173.744 114.371 174.912V176.64C114.371 177.184 114.355 177.584 114.179 178ZM117.043 168.4H117.891V171.84H117.203C116.547 171.84 116.147 171.552 116.147 170.656V169.552C116.147 168.752 116.419 168.4 117.043 168.4ZM126.013 166.8H123.421V178H125.181V173.792H126.013C127.773 173.792 128.637 172.816 128.637 171.024V169.568C128.637 167.776 127.773 166.8 126.013 166.8ZM125.181 168.4H126.013C126.573 168.4 126.877 168.656 126.877 169.456V171.136C126.877 171.936 126.573 172.192 126.013 172.192H125.181V168.4ZM131.261 178L132.733 172.864L133.453 170.112V178H135.037V166.8H133.101L131.661 171.424L131.021 173.888V166.8H129.453V178H131.261ZM135.785 176.416V178.016H136.057C137.817 178.016 138.553 177.216 138.617 175.168L138.809 168.4H140.345V178H142.137V166.8H137.161L136.873 175.264C136.841 176.304 136.585 176.416 135.785 176.416ZM148.588 173.824H146.924V175.424C146.924 176.224 146.572 176.512 146.012 176.512C145.452 176.512 145.1 176.224 145.1 175.424V169.376C145.1 168.576 145.452 168.272 146.012 168.272C146.572 168.272 146.924 168.576 146.924 169.376V170.576H148.588V169.488C148.588 167.696 147.692 166.672 145.964 166.672C144.236 166.672 143.34 167.696 143.34 169.488V175.312C143.34 177.104 144.236 178.128 145.964 178.128C147.692 178.128 148.588 177.104 148.588 175.312V173.824Z" fill="white"/>
<path d="M38.744 157.824H37.08V159.424C37.08 160.224 36.728 160.512 36.168 160.512C35.608 160.512 35.256 160.224 35.256 159.424V153.376C35.256 152.576 35.608 152.272 36.168 152.272C36.728 152.272 37.08 152.576 37.08 153.376V154.576H38.744V153.488C38.744 151.696 37.848 150.672 36.12 150.672C34.392 150.672 33.496 151.696 33.496 153.488V159.312C33.496 161.104 34.392 162.128 36.12 162.128C37.848 162.128 38.744 161.104 38.744 159.312V157.824ZM42.4039 150.8H39.8119V162H41.5719V157.792H42.4039C44.1639 157.792 45.0279 156.816 45.0279 155.024V153.568C45.0279 151.776 44.1639 150.8 42.4039 150.8ZM41.5719 152.4H42.4039C42.9639 152.4 43.2679 152.656 43.2679 153.456V155.136C43.2679 155.936 42.9639 156.192 42.4039 156.192H41.5719V152.4Z" fill="#EBFF00"/>
<path opacity="0.33" d="M69.128 124.8V126.4H70.968V136H72.728V126.4H74.568V124.8H69.128ZM77.9351 124.8H75.3431V136H77.1031V131.792H77.9351C79.6951 131.792 80.5591 130.816 80.5591 129.024V127.568C80.5591 125.776 79.6951 124.8 77.9351 124.8ZM77.1031 126.4H77.9351C78.4951 126.4 78.7991 126.656 78.7991 127.456V129.136C78.7991 129.936 78.4951 130.192 77.9351 130.192H77.1031V126.4ZM83.1344 129.52V126.4H86.1744V124.8H81.3744V136H86.1744V134.4H83.1344V131.12H85.5504V129.52H83.1344ZM89.025 136V131.2H91.025V136H92.817V124.8H91.025V129.6H89.025V124.8H87.265V136H89.025ZM99.1811 137.504H100.925V134.432H100.157V124.8H95.2291L94.8291 132.976C94.7971 133.632 94.7011 134.048 94.3971 134.432H93.7091V137.504H95.4211V136H99.1811V137.504ZM96.5571 132.944L96.8771 126.4H98.3651V134.432H96.0611C96.3491 134.16 96.5091 133.792 96.5571 132.944ZM101.762 127.488V133.312C101.762 135.104 102.706 136.128 104.434 136.128C106.162 136.128 107.106 135.104 107.106 133.312V127.488C107.106 125.696 106.162 124.672 104.434 124.672C102.706 124.672 101.762 125.696 101.762 127.488ZM103.522 133.424V127.376C103.522 126.576 103.874 126.272 104.434 126.272C104.994 126.272 105.346 126.576 105.346 127.376V133.424C105.346 134.224 104.994 134.528 104.434 134.528C103.874 134.528 103.522 134.224 103.522 133.424ZM110.905 124.8H108.249V136H111.017C112.777 136 113.689 135.072 113.689 133.344V132.432C113.689 131.248 113.321 130.4 112.377 130.032C113.161 129.664 113.513 128.928 113.513 127.776V127.376C113.513 125.648 112.729 124.8 110.905 124.8ZM110.009 126.4H110.857C111.481 126.4 111.753 126.752 111.753 127.552V128.176C111.753 129.072 111.353 129.36 110.697 129.36H110.009V126.4ZM110.009 130.96H110.793C111.593 130.96 111.929 131.28 111.929 132.32V133.296C111.929 134.128 111.609 134.4 111.017 134.4H110.009V130.96ZM120.445 136L118.653 124.8H116.077L114.285 136H115.901L116.205 133.968H118.365L118.669 136H120.445ZM116.429 132.448L117.277 126.784L118.125 132.448H116.429ZM120.945 136H122.737C122.833 135.712 122.897 135.536 122.897 134.624V132.864C122.897 131.824 123.249 131.44 124.049 131.44H124.657V136H126.417V124.8H123.761C121.937 124.8 121.153 125.648 121.153 127.376V128.256C121.153 129.408 121.521 130.16 122.305 130.528C121.425 130.896 121.137 131.744 121.137 132.912V134.64C121.137 135.184 121.121 135.584 120.945 136ZM123.809 126.4H124.657V129.84H123.969C123.313 129.84 122.913 129.552 122.913 128.656V127.552C122.913 126.752 123.185 126.4 123.809 126.4ZM133.915 132.752L132.619 124.8H130.171V136H131.707V128.08L133.019 136H134.683L135.899 127.968V136H137.563V124.8H135.115L133.915 132.752ZM142.747 133.152L144.635 124.8H142.795L141.995 128.64L141.579 131.248L141.035 128.624L140.075 124.8H138.331L140.763 133.44L140.747 133.536C140.603 134.352 140.091 134.512 139.195 134.448V136.016C141.643 136.176 142.331 135.168 142.747 133.152ZM148.766 127.552V128.176C148.766 129.072 148.366 129.36 147.71 129.36H147.182V130.96H147.614C148.414 130.96 148.766 131.344 148.766 132.384V133.264C148.766 134.256 148.414 134.528 147.854 134.528C147.294 134.528 146.942 134.224 146.942 133.424V132.08H145.278V133.312C145.278 135.104 146.174 136.128 147.902 136.128C149.63 136.128 150.526 135.104 150.526 133.312V132.432C150.526 131.296 150.174 130.464 149.294 130.08C150.142 129.728 150.526 128.976 150.526 127.776V127.488C150.526 125.696 149.63 124.672 147.902 124.672C146.174 124.672 145.31 125.664 145.31 127.456V128.288H146.926V127.376C146.926 126.576 147.294 126.272 147.854 126.272C148.414 126.272 148.766 126.544 148.766 127.552ZM151.718 136H154.31C156.07 136 156.934 135.024 156.934 133.232V131.776C156.934 129.984 156.07 129.008 154.31 129.008H153.478V124.8H151.718V136ZM157.942 136H159.702V124.8H157.942V136ZM154.31 134.4H153.478V130.608H154.31C154.87 130.608 155.174 130.864 155.174 131.664V133.344C155.174 134.144 154.87 134.4 154.31 134.4ZM163.288 131.536L165 136H166.808L164.36 129.792L166.808 124.8H165.048L162.744 129.68V124.8H160.984V136H162.744V132.56L163.288 131.536ZM173.305 136L171.513 124.8H168.937L167.145 136H168.761L169.065 133.968H171.225L171.529 136H173.305ZM169.289 132.448L170.137 126.784L170.985 132.448H169.289ZM179.729 124.8H179.185C177.425 124.8 176.721 125.456 176.721 127.248V133.552C176.721 135.344 177.425 136 179.185 136H179.729V134.56H179.297C178.737 134.56 178.481 134.352 178.481 133.552V127.248C178.481 126.448 178.737 126.24 179.297 126.24H179.729V124.8ZM182.384 136V126.4H184.384V136H186.176V124.8H180.624V136H182.384ZM187.309 127.488V133.312C187.309 135.104 188.253 136.128 189.981 136.128C191.709 136.128 192.653 135.104 192.653 133.312V127.488C192.653 125.696 191.709 124.672 189.981 124.672C188.253 124.672 187.309 125.696 187.309 127.488ZM189.069 133.424V127.376C189.069 126.576 189.421 126.272 189.981 126.272C190.541 126.272 190.893 126.576 190.893 127.376V133.424C190.893 134.224 190.541 134.528 189.981 134.528C189.421 134.528 189.069 134.224 189.069 133.424ZM198.9 131.824H197.236V133.424C197.236 134.224 196.884 134.512 196.324 134.512C195.764 134.512 195.412 134.224 195.412 133.424V127.376C195.412 126.576 195.764 126.272 196.324 126.272C196.884 126.272 197.236 126.576 197.236 127.376V128.576H198.9V127.488C198.9 125.696 198.004 124.672 196.276 124.672C194.548 124.672 193.652 125.696 193.652 127.488V133.312C193.652 135.104 194.548 136.128 196.276 136.128C198.004 136.128 198.9 135.104 198.9 133.312V131.824ZM199.456 124.8V126.4H201.296V136H203.056V126.4H204.896V124.8H199.456ZM210.812 124.8H208.156V136H210.924C212.684 136 213.596 135.072 213.596 133.344V132.432C213.596 131.248 213.228 130.4 212.284 130.032C213.068 129.664 213.42 128.928 213.42 127.776V127.376C213.42 125.648 212.636 124.8 210.812 124.8ZM209.916 126.4H210.764C211.388 126.4 211.66 126.752 211.66 127.552V128.176C211.66 129.072 211.26 129.36 210.604 129.36H209.916V126.4ZM209.916 130.96H210.7C211.5 130.96 211.836 131.28 211.836 132.32V133.296C211.836 134.128 211.516 134.4 210.924 134.4H209.916V130.96ZM219.444 131.536L221.156 136H222.964L220.516 129.792L222.964 124.8H221.204L218.9 129.68V124.8H217.14V136H218.9V132.56L219.444 131.536ZM229.461 136L227.669 124.8H225.093L223.301 136H224.917L225.221 133.968H227.381L227.685 136H229.461ZM225.445 132.448L226.293 126.784L227.141 132.448H225.445ZM232.041 136V131.2H234.041V136H235.833V124.8H234.041V129.6H232.041V124.8H230.281V136H232.041ZM242.805 136L241.013 124.8H238.437L236.645 136H238.261L238.565 133.968H240.725L241.029 136H242.805ZM238.789 132.448L239.637 126.784L240.485 132.448H238.789ZM243.128 134.416V136.016H243.4C245.16 136.016 245.896 135.216 245.96 133.168L246.152 126.4H247.688V136H249.48V124.8H244.504L244.216 133.264C244.184 134.304 243.928 134.416 243.128 134.416ZM252.588 129.52V126.4H255.628V124.8H250.828V136H255.628V134.4H252.588V131.12H255.004V129.52H252.588ZM256.878 124.8H256.334V126.24H256.766C257.326 126.24 257.582 126.448 257.582 127.248V133.552C257.582 134.352 257.326 134.56 256.766 134.56H256.334V136H256.878C258.638 136 259.342 135.344 259.342 133.552V127.248C259.342 125.456 258.638 124.8 256.878 124.8Z" fill="white"/>
<path d="M36.296 124.8H33.64V136H36.408C38.168 136 39.08 135.072 39.08 133.344V132.432C39.08 131.248 38.712 130.4 37.768 130.032C38.552 129.664 38.904 128.928 38.904 127.776V127.376C38.904 125.648 38.12 124.8 36.296 124.8ZM35.4 126.4H36.248C36.872 126.4 37.144 126.752 37.144 127.552V128.176C37.144 129.072 36.744 129.36 36.088 129.36H35.4V126.4ZM35.4 130.96H36.184C36.984 130.96 37.32 131.28 37.32 132.32V133.296C37.32 134.128 37 134.4 36.408 134.4H35.4V130.96ZM39.628 124.8V126.4H41.468V136H43.228V126.4H45.068V124.8H39.628Z" fill="#EBFF00"/>
<line opacity="0.1" x1="56.5" y1="330" x2="56.5" y2="82" stroke="white"/>
<rect x="0.5" y="0.5" width="302" height="361" rx="9.5" stroke="#2C3238"/>
</svg>
