<svg width="28" height="28" viewBox="0 0 28 28" fill="none" xmlns="http://www.w3.org/2000/svg">
<path fill-rule="evenodd" clip-rule="evenodd" d="M27.3334 14.0001C27.3334 21.3639 21.3639 27.3334 14.0001 27.3334C6.63628 27.3334 0.666748 21.3639 0.666748 14.0001C0.666748 6.63628 6.63628 0.666748 14.0001 0.666748C21.3639 0.666748 27.3334 6.63628 27.3334 14.0001ZM14.0001 16.6667C14.7365 16.6667 15.3334 16.0698 15.3334 15.3334V8.66676C15.3334 7.93038 14.7365 7.33343 14.0001 7.33343C13.2637 7.33343 12.6667 7.93038 12.6667 8.66676V15.3334C12.6667 16.0698 13.2637 16.6667 14.0001 16.6667ZM14.0001 22.0001C14.7365 22.0001 15.3334 21.4031 15.3334 20.6667C15.3334 19.9304 14.7365 19.3334 14.0001 19.3334C13.2637 19.3334 12.6667 19.9304 12.6667 20.6667C12.6667 21.4031 13.2637 22.0001 14.0001 22.0001Z" fill="#EBFF00"/>
</svg>
