<svg width="28" height="25" viewBox="0 0 28 25" fill="none" xmlns="http://www.w3.org/2000/svg">
<path fill-rule="evenodd" clip-rule="evenodd" d="M0.666748 4C0.666748 1.79086 2.45761 0 4.66675 0H23.3334C25.5426 0 27.3334 1.79086 27.3334 4V17.3333C27.3334 19.5425 25.5426 21.3333 23.3334 21.3333H9.14948C8.83757 21.3333 8.53552 21.4427 8.2959 21.6424L5.04057 24.3551C3.3037 25.8025 0.666748 24.5675 0.666748 22.3066V4ZM7.33341 8C7.33341 7.26362 7.93037 6.66667 8.66675 6.66667H19.3334C20.0698 6.66667 20.6667 7.26362 20.6667 8C20.6667 8.73638 20.0698 9.33333 19.3334 9.33333H8.66675C7.93037 9.33333 7.33341 8.73638 7.33341 8ZM8.66675 12C7.93037 12 7.33341 12.597 7.33341 13.3333C7.33341 14.0697 7.93037 14.6667 8.66675 14.6667H14.0001C14.7365 14.6667 15.3334 14.0697 15.3334 13.3333C15.3334 12.597 14.7365 12 14.0001 12H8.66675Z" fill="#6F767E"/>
</svg>
